<svg xmlns="http://www.w3.org/2000/svg" aria-hidden="true" overflow="hidden" style="position:absolute;width:0;height:0">
  <defs>
    <symbol id="icon-burger" viewBox="0 0 49 32">
      <path d="M2.581 0h43.355a2.58 2.58 0 1 1 0 5.162H2.581a2.58 2.58 0 1 1 0-5.162zm0 13.419h43.355a2.58 2.58 0 1 1 0 5.162H2.581a2.58 2.58 0 1 1 0-5.162zm8.258 13.42h35.097a2.58 2.58 0 1 1 0 5.162H10.839a2.58 2.58 0 1 1 0-5.162z"/>
    </symbol>
    <symbol id="icon-close" viewBox="0 0 32 32">
      <path d="M11.131 16 1.368 6.237a3.442 3.442 0 1 1 4.869-4.869L16 11.131l9.763-9.763a3.442 3.442 0 1 1 4.869 4.869L20.869 16l9.763 9.763a3.442 3.442 0 1 1-4.869 4.869L16 20.869l-9.763 9.763a3.442 3.442 0 1 1-4.869-4.869L11.131 16z"/>
    </symbol>
    <symbol id="icon-location" viewBox="0 0 23 32">
      <path d="M11.429 0C5.117 0 0 5.114 0 11.422 0 18.806 9.524 32 11.429 32s11.428-13.194 11.428-20.578C22.857 5.114 17.741 0 11.429 0zm0 17.855c-3.573 0-6.47-2.895-6.47-6.466s2.897-6.466 6.47-6.466 6.47 2.895 6.47 6.466-2.896 6.466-6.47 6.466z"/>
    </symbol>
    <symbol id="icon-man-dollar" viewBox="0 0 34 32">
      <path d="M33.066 23.167c-.798-1.282-2.341-2.1-5.414-3.729a273.42 273.42 0 0 1-2.32-1.24.357.357 0 0 0-.407.046l-5.269 4.634-5.285-4.634a.359.359 0 0 0-.407-.046c-.905.489-1.716.918-2.432 1.297-3.025 1.599-4.543 2.401-5.329 3.671-.063.101-.12.205-.173.312C2.885 22.382.719 19.359.719 16c0-4.365 3.548-7.917 7.91-7.917 1.565 0 3.071.456 4.366 1.316.861 3.242 3.156 6.963 6.785 6.963 4.709 0 7.172-6.261 7.172-9.617C26.952 3.026 23.735 0 19.78 0s-7.171 3.026-7.171 6.745c0 .504.056 1.074.166 1.677a8.57 8.57 0 0 0-4.147-1.063c-4.758 0-8.63 3.876-8.63 8.641 0 1.902.605 3.706 1.751 5.217a8.71 8.71 0 0 0 4.017 2.934c-.344 1.154-.327 2.686-.299 5.156.008.689.016 1.469.018 2.33 0 .2.161.361.36.361h27.592a.36.36 0 0 0 .36-.361c.002-.841.01-1.606.017-2.281.035-3.263.053-4.901-.75-6.191zM6.501 24.226v.001-.001zm-.069.226-.014.052.014-.052zm-.031.123-.013.053.013-.053zm.239-.611c.001-.016 0-.032-.001-.048.001.016.002.032.001.048zm-.004-.079zm.002.095a.356.356 0 0 1-.033.117c.008-.018.016-.036.021-.055.006-.02.009-.041.012-.062zm-.056.156-.006.01.006-.01zm-.346 1.517-.005.066.005-.066zm-.012.161-.005.069.005-.069zm-.012.169-.004.066.004-.066zm-.019.407a1.59 1.59 0 0 0-.002.068l.002-.068zm-.017 1.518v.064-.064zm.003.537.001.08-.001-.08zm.003.252.001.091-.001-.091zm.003.268.001.083-.001-.083z"/>
      <path d="M6.665 17.051a1.89 1.89 0 0 1-.393-.822l-1.7.184c.132.778.431 1.381.902 1.808s1.049.711 1.799.795l.007 1.099.951-.019.003-1.125c.855-.123 1.541-.428 2.021-.921s.719-1.1.719-1.82c0-.645-.19-1.173-.571-1.585-.379-.41-1.095-.747-2.146-1.004v-2.333c.424.167.687.486.79.955l1.66-.196c-.114-.598-.377-1.075-.788-1.433-.413-.357-.99-.56-1.686-.636l-.001-.855h-.957l.007.844c-.745.068-1.317.321-1.766.765-.448.443-.674.992-.674 1.645 0 .645.199 1.192.596 1.645.395.451 1.018.788 1.868 1.01v2.5a1.76 1.76 0 0 1-.638-.5zm1.589-1.742c.395.104.678.251.85.444a.992.992 0 0 1 .261.688c0 .3-.103.56-.31.78-.205.22-.473.363-.801.428v-2.34zm-1.578-2.394a.956.956 0 0 1-.203-.588c0-.231.073-.441.223-.633s.351-.328.607-.412v2.07c-.281-.111-.491-.257-.627-.437z"/>
    </symbol>
    <symbol id="icon-medal" viewBox="0 0 25 32">
      <path d="M12.343 17.371a5.029 5.029 0 1 0 0-10.058 5.029 5.029 0 0 0 0 10.058z"/>
      <path d="M24.262 11.958a2.081 2.081 0 0 0 .403-1.555 2.055 2.055 0 0 0-.82-1.377l-.863-.635c-.285-.209-.511-.489-.657-.814s-.207-.681-.177-1.036l.091-1.077a2.079 2.079 0 0 0-1.128-2.04 1.993 1.993 0 0 0-.785-.209l-1.065-.06c-.351-.02-.691-.132-.986-.325s-.537-.46-.701-.775l-.493-.957A2.03 2.03 0 0 0 15.042.016a2.03 2.03 0 0 0-.769.257l-.927.532a2.013 2.013 0 0 1-2.008 0l-.927-.532A2.002 2.002 0 0 0 8.834.088a2.026 2.026 0 0 0-1.228 1.019l-.493.957c-.164.315-.405.582-.701.775s-.635.305-.986.325l-1.065.06a2.027 2.027 0 0 0-1.427.713 2.097 2.097 0 0 0-.486 1.536l.091 1.077c.03.355-.03.712-.176 1.036s-.372.604-.657.814l-.863.635a2.055 2.055 0 0 0-.82 1.377 2.094 2.094 0 0 0 .403 1.555l.651.855a2.098 2.098 0 0 1 .286 2.012l-.387 1a2.081 2.081 0 0 0 1.214 2.695l1.004.363c.331.119.627.324.857.593s.388.595.457.944l.192.95-2.562 8.441 4.064-1.29L8.732 32l2.311-7.657a2.016 2.016 0 0 0 2.483.092l2.431 7.564 2.53-3.47 4.064 1.29-2.624-8.159a1.99 1.99 0 0 0 .044-.173l.21-1.06c.07-.349.227-.675.457-.944s.526-.474.857-.593l1.004-.363c.257-.093.492-.237.693-.424a2.08 2.08 0 0 0 .521-2.271l-.387-1a2.088 2.088 0 0 1 .286-2.012l.653-.865zm-18.961.455c0-1.411.413-2.791 1.186-3.965S8.36 6.36 9.646 5.82c1.286-.54 2.702-.681 4.068-.406s2.62.955 3.605 1.953c.985.998 1.655 2.27 1.927 3.654s.132 2.819-.401 4.123-1.435 2.419-2.593 3.203a6.975 6.975 0 0 1-3.911 1.203c-1.867-.002-3.656-.754-4.976-2.092s-2.062-3.152-2.064-5.044z"/>
    </symbol>
    <symbol id="icon-next" viewBox="0 0 19 32">
      <path d="M12.915 16.757a1.062 1.062 0 0 0 0-1.513L1.16 3.665a1.7 1.7 0 0 1 2.385-2.421l13.236 13.038a2.411 2.411 0 0 1 0 3.436L3.545 30.756a1.7 1.7 0 0 1-2.385-2.421l11.755-11.579z"/>
    </symbol>
    <symbol id="icon-play-video" viewBox="0 0 28 32">
      <path d="M27.556 14.46c1.185.684 1.185 2.395 0 3.079l-24 13.857c-1.185.684-2.667-.171-2.667-1.54V2.143C.889.774 2.37-.081 3.556.603l24 13.856z"/>
    </symbol>
    <symbol id="icon-pouch-dollar" viewBox="0 0 28 32">
      <path d="M20.147 1.778H8.297c-.838 0-1.412.794-1.1 1.523l1.099 2.921h11.853l1.099-2.921c.312-.729-.262-1.523-1.1-1.523zm.001 7.111H8.296S0 16.187 0 24.702C0 29.568 3.556 32 5.926 32h16.592c2.37 0 5.926-2.433 5.926-7.298 0-8.515-8.296-15.813-8.296-15.813zm-4.741 16.905v1.949h-2.37v-1.942c-1.743-.336-2.84-1.435-2.904-3.042h2.053c.098.844.928 1.386 2.124 1.386 1.103 0 1.884-.549 1.884-1.336 0-.664-.506-1.046-1.751-1.321l-1.321-.288c-1.849-.397-2.757-1.385-2.757-2.973 0-1.597 1.03-2.736 2.671-3.11v-1.969h2.37v1.966c1.6.367 2.669 1.487 2.721 2.998H16.13c-.098-.822-.844-1.371-1.87-1.371-1.062 0-1.765.505-1.765 1.299 0 .642.485 1.011 1.673 1.27l1.223.268c2.04.44 2.918 1.343 2.918 2.958 0 1.739-1.088 2.906-2.904 3.26z"/>
      <path d="M17.778 3.556h-7.111a3.556 3.556 0 1 1 7.112 0z"/>
    </symbol>
    <symbol id="icon-purse" viewBox="0 0 33 32">
      <path d="M28.114 0H4.8C3.531.012 2.317.521 1.42 1.416S.013 3.522 0 4.788v17.787c.048 1.309.514 2.569 1.329 3.596s1.938 1.768 3.204 2.115l15.304 3.586c.582.15 1.191.168 1.782.053s1.147-.362 1.629-.722a3.918 3.918 0 0 0 1.437-3.155V14.787c-.002-1.273-.421-2.509-1.194-3.522s-1.855-1.746-3.084-2.088L5.561 5.093a1.037 1.037 0 0 1-.621-.483 1.022 1.022 0 0 1 .083-1.137 1.02 1.02 0 0 1 .685-.388c.134-.017.27-.007.4.029l4.863 1.334h17.14a1.027 1.027 0 1 1 0 2.054h-7.179a.338.338 0 0 0-.34.296c-.011.082.008.165.053.235s.115.119.195.141l.118.033a7.846 7.846 0 0 1 3.977 2.591.356.356 0 0 0 .266.125h2.91a1.027 1.027 0 1 1 0 2.054h-1.424a.338.338 0 0 0-.278.141.343.343 0 0 0-.048.307c.252.764.382 1.564.385 2.368v9.498a.342.342 0 0 0 .342.342h1.022c1.273 0 2.494-.505 3.394-1.402s1.406-2.116 1.406-3.386V4.795A4.784 4.784 0 0 0 29.947.369a4.81 4.81 0 0 0-1.838-.365zm-6.857 20.523a2.734 2.734 0 0 1-1.693 2.528 2.756 2.756 0 0 1-1.585.156 2.735 2.735 0 0 1 .535-5.42c.727 0 1.425.288 1.939.801s.803 1.209.803 1.935z"/>
    </symbol>
    <symbol id="icon-tools" viewBox="0 0 32 32">
      <path d="M3.088 7.846.074 2.859 2.083.864l5.023 2.992v1.995l5.167 5.13v.428l-1.866 1.71-5.31-5.272H3.088zm21.527 12.111h-1.148c-1.005 0-1.866-.142-2.727-.285l-3.014 3.42 6.745 7.552c1.579 1.71 4.306 1.852 5.884.142 1.722-1.71 1.579-4.275-.143-5.842l-5.597-4.987zm4.88-5.414c2.296-2.28 3.014-5.7 2.153-8.692-.144-.57-.861-.712-1.148-.285l-5.023 4.987-4.018-3.99 5.023-4.987c.431-.427.287-.997-.287-1.14-3.014-.997-6.458-.285-8.755 2.137-2.583 2.565-3.157 6.554-1.722 9.689L1.366 24.943C-.356 26.51-.5 29.218 1.222 30.785c1.722 1.71 4.306 1.567 5.884-.142l12.773-14.249c3.157 1.425 7.032.855 9.616-1.852z"/>
    </symbol>
    <symbol id="icon-telegram" viewBox="0 0 32 32">
      <path d="M16 5C9.925 5 5 9.925 5 16s4.925 11 11 11 11-4.925 11-11S22.075 5 16 5zm0 2c4.971 0 9 4.029 9 9s-4.029 9-9 9-9-4.029-9-9 4.029-9 9-9zm4.52 4.669c-.254-.029-.573.04-.93.169-.651.235-8.979 3.771-9.46 3.976-.456.194-.887.405-.888.711 0 .215.127.336.479.462.366.131 1.289.41 1.834.561.525.145 1.122.019 1.457-.189.354-.221 4.451-2.961 4.744-3.201s.528.068.288.309c-.24.241-3.052 2.968-3.423 3.346-.45.459-.13.934.172 1.125.345.218 2.825 1.88 3.198 2.147s.752.388 1.099.388.53-.457.702-.987c.203-.62 1.151-6.807 1.268-8.026.035-.37-.081-.615-.31-.725a.71.71 0 0 0-.231-.063z"/>
    </symbol>
    <symbol id="icon-whatsapp" viewBox="0 0 32 32">
      <path d="M16 5C9.925 5 5 9.925 5 16c0 2.032.554 3.935 1.516 5.568l-1.408 5.273 5.531-1.237A10.953 10.953 0 0 0 16 26.999c6.075 0 11-4.925 11-11s-4.925-11-11-11zm0 2a9 9 0 0 1 9 9 9 9 0 0 1-14.035 7.461l-3.069.687.781-2.928A8.956 8.956 0 0 1 7 16a9 9 0 0 1 9-9zm-3.764 3.868c-.184 0-.479.068-.729.341-.246.274-.95.93-.95 2.273 0 1.338.972 2.636 1.108 2.814.136.183 1.885 3.023 4.657 4.114 2.298.905 2.768.726 3.271.679.499-.043 1.611-.657 1.838-1.292s.226-1.181.155-1.296c-.069-.111-.247-.18-.52-.316s-1.612-.797-1.863-.887c-.247-.09-.431-.137-.609.136-.183.273-.704.887-.866 1.066-.157.183-.315.205-.588.068s-1.151-.423-2.191-1.353c-.809-.721-1.356-1.613-1.514-1.885s-.017-.421.119-.558c.124-.119.274-.316.41-.474.132-.162.179-.273.269-.456.095-.178.046-.341-.021-.478s-.597-1.485-.84-2.021c-.204-.452-.417-.465-.613-.47-.159-.008-.342-.008-.521-.008z"/>
    </symbol>
  </defs>
</svg>
