<svg width="161" height="50" viewBox="0 0 161 50" fill="none" xmlns="http://www.w3.org/2000/svg">
<path d="M71 26.5091V29H69.3222V27.8123H64V22H65.8041V26.5091H68.2974V22H70.1015V26.5091H71Z" fill="white"/>
<path d="M77 26.6889V28H72V22H76.8848V23.3119H73.7403V24.3228H76.5108V25.5913H73.7403V26.6889H77Z" fill="white"/>
<path d="M84 22V28H82.216V25.6597H79.7832V28H78V22H79.7832V24.2519H82.216V22H84Z" fill="white"/>
<path d="M88.9969 23.3461H87.2816V28H85.7223V23.3461H84V22H89L88.9969 23.3461Z" fill="white"/>
<path d="M93.8424 22.2712C94.1911 22.432 94.4885 22.7003 94.6976 23.0425C94.9028 23.3947 95.0076 23.8045 94.9988 24.2208C95.0123 24.6334 94.9088 25.0405 94.7022 25.3876C94.4956 25.7346 94.1958 26.0049 93.8431 26.1621C93.4291 26.3513 92.9826 26.4431 92.5333 26.4315H91.5679V28H90V22.001H92.5333C92.9824 21.9893 93.4287 22.0814 93.8424 22.2712ZM93.1697 24.8679C93.3331 24.7161 93.4147 24.501 93.4147 24.2208C93.4212 24.0994 93.4026 23.9779 93.3602 23.8652C93.3178 23.7526 93.2527 23.6515 93.1697 23.5695C93.0059 23.415 92.7629 23.3377 92.4409 23.3377H91.5702V25.0947H92.4409C92.7629 25.0947 93.0059 25.0191 93.1697 24.8679Z" fill="white"/>
<path d="M68.7582 36.8324H66.2117L65.7379 38H64L66.6587 32H68.3329L71 38H69.2312L68.7582 36.8324ZM68.2559 35.5813L67.4816 33.6631L66.7072 35.5813H68.2559Z" fill="white"/>
<path d="M76.7441 35.3945C76.9193 35.6515 77.0092 35.9659 76.9992 36.2861C77.007 36.5304 76.9592 36.773 76.8599 36.9922C76.7605 37.2113 76.6129 37.4 76.4302 37.5413C76.0504 37.8476 75.5128 38.0006 74.8173 38H72V32H74.6684C75.3272 32 75.8386 32.1357 76.2026 32.407C76.377 32.5315 76.5189 32.7031 76.6144 32.9053C76.71 33.1074 76.756 33.3331 76.7479 33.5605C76.7527 33.8321 76.6862 34.0995 76.5562 34.3311C76.4206 34.5613 76.2289 34.7456 76.0025 34.8632C76.2938 34.953 76.5527 35.1385 76.7441 35.3945ZM73.5304 34.4003H74.5233C74.9626 34.4003 75.1823 34.2032 75.1823 33.809C75.1823 33.4148 74.9626 33.2174 74.5233 33.2168H73.5304V34.4003ZM75.4298 36.1568C75.4298 35.7515 75.2047 35.5488 74.7547 35.5488H73.5327V36.7832H74.7547C75.2042 36.7832 75.4293 36.5744 75.4298 36.1568Z" fill="white"/>
<path d="M81.9977 33.3461H80.2824V38H78.7231V33.3461H77V32H82L81.9977 33.3461Z" fill="white"/>
<path d="M84.7157 37.6127C84.1982 37.3629 83.7647 36.9874 83.4623 36.5268C83.1599 36.0663 83 35.5383 83 35C83 34.4617 83.1599 33.9337 83.4623 33.4732C83.7647 33.0126 84.1982 32.6371 84.7157 32.3873C85.2699 32.1326 85.8807 32 86.5 32C87.1193 32 87.7301 32.1326 88.2843 32.3873C88.8018 32.6371 89.2353 33.0126 89.5377 33.4732C89.8401 33.9337 90 34.4617 90 35C90 35.5383 89.8401 36.0663 89.5377 36.5268C89.2353 36.9874 88.8018 37.3629 88.2843 37.6127C87.7301 37.8674 87.1193 38 86.5 38C85.8807 38 85.2699 37.8674 84.7157 37.6127ZM87.3582 36.4427C87.6158 36.3046 87.8268 36.1033 87.9675 35.8613C88.1145 35.5944 88.1911 35.2993 88.1911 35C88.1911 34.7007 88.1145 34.4056 87.9675 34.1387C87.827 33.8967 87.616 33.6957 87.3582 33.5581C87.0958 33.423 86.8002 33.3521 86.4996 33.3521C86.1989 33.3521 85.9033 33.423 85.6409 33.5581C85.3835 33.6961 85.1726 33.8971 85.0317 34.1387C84.8852 34.4058 84.8089 34.7008 84.8089 35C84.8089 35.2992 84.8852 35.5942 85.0317 35.8613C85.1729 36.103 85.3837 36.3042 85.6409 36.4427C85.9035 36.5773 86.1991 36.6479 86.4996 36.6479C86.8001 36.6479 87.0956 36.5773 87.3582 36.4427Z" fill="white"/>
<path d="M97 32V38H95.2084V33.3461H92.7783V38H91V32H97Z" fill="white"/>
<path d="M98.7152 37.6128C98.1978 37.3628 97.7645 36.9872 97.4621 36.5267C97.1598 36.0661 97 35.5382 97 35C97 34.4618 97.1598 33.9339 97.4621 33.4733C97.7645 33.0128 98.1978 32.6372 98.7152 32.3872C99.2696 32.1325 99.8806 32 100.5 32C101.119 32 101.73 32.1325 102.285 32.3872C102.802 32.6372 103.236 33.0128 103.538 33.4733C103.84 33.9339 104 34.4618 104 35C104 35.5382 103.84 36.0661 103.538 36.5267C103.236 36.9872 102.802 37.3628 102.285 37.6128C101.73 37.8675 101.119 38 100.5 38C99.8806 38 99.2696 37.8675 98.7152 37.6128ZM101.359 36.4428C101.617 36.3047 101.828 36.1034 101.969 35.8613C102.116 35.5944 102.192 35.2993 102.192 35C102.192 34.7007 102.116 34.4056 101.969 34.1387C101.828 33.8967 101.617 33.6956 101.359 33.558C101.097 33.4229 100.801 33.352 100.5 33.352C100.2 33.352 99.904 33.4229 99.6416 33.558C99.3837 33.6956 99.1726 33.8967 99.0321 34.1387C98.885 34.4056 98.8084 34.7007 98.8084 35C98.8084 35.2993 98.885 35.5944 99.0321 35.8613C99.1729 36.1034 99.3838 36.3047 99.6416 36.4428C99.9042 36.5774 100.2 36.648 100.5 36.648C100.801 36.648 101.097 36.5774 101.359 36.4428Z" fill="white"/>
<path d="M107.576 35.7031H106.768V38H105V32H106.768V34.3311H107.619L109.116 32H110.983L109.018 34.8974L111 38H109L107.576 35.7031Z" fill="white"/>
<path d="M114.82 32.2712C115.17 32.434 115.469 32.7052 115.679 33.0511C115.888 33.3969 116 33.8022 116 34.2167C116 34.6311 115.888 35.0364 115.679 35.3823C115.469 35.7281 115.17 35.9993 114.82 36.1621C114.409 36.3515 113.965 36.4433 113.519 36.4315H112.558V38H111V32.001H113.519C113.965 31.9891 114.409 32.0812 114.82 32.2712ZM114.152 34.8679C114.314 34.7162 114.395 34.501 114.395 34.2208C114.402 34.0994 114.383 33.9779 114.341 33.8653C114.299 33.7526 114.234 33.6516 114.152 33.5696C113.989 33.415 113.747 33.3378 113.428 33.3378H112.562V35.0947H113.428C113.748 35.0947 113.989 35.0191 114.152 34.8679Z" fill="white"/>
<path d="M120.755 36.8324H118.212L117.738 38H116L118.659 32H120.333L123 38H121.225L120.755 36.8324ZM120.253 35.5813L119.479 33.6631L118.705 35.5813H120.253Z" fill="white"/>
<path d="M125.641 37.6163C125.143 37.3722 124.726 37.0028 124.437 36.5491C124.151 36.0775 124 35.5434 124 35C124 34.4565 124.151 33.9225 124.437 33.4509C124.726 32.9973 125.142 32.6279 125.64 32.3837C126.173 32.1231 126.767 31.9915 127.368 32.0004C127.887 31.993 128.402 32.0886 128.88 32.2811C129.318 32.4596 129.703 32.7369 130 33.0885L128.898 34.0274C128.501 33.5778 128.018 33.3528 127.451 33.3523C127.141 33.3468 126.835 33.4179 126.563 33.5583C126.307 33.6926 126.097 33.8943 125.96 34.1388C125.819 34.4065 125.746 34.7012 125.746 35C125.746 35.2988 125.819 35.5935 125.96 35.8611C126.097 36.1057 126.307 36.3076 126.563 36.4424C126.835 36.5822 127.141 36.6529 127.451 36.6477C128.018 36.6477 128.501 36.4227 128.898 35.9726L130 36.9115C129.703 37.2633 129.318 37.5407 128.88 37.7189C128.402 37.9113 127.887 38.007 127.368 37.9995C126.767 38.0088 126.174 37.8771 125.641 37.6163Z" fill="white"/>
<path d="M132.575 35.7031H131.767V38H130V32H131.767V34.3311H132.619L134.117 32H135.983L134.018 34.8974L136 38H134.001L132.575 35.7031Z" fill="white"/>
<path d="M137 32H138.744V35.5229L141.333 32H143V38H141.256V34.4854L138.676 38H137V32Z" fill="white"/>
<path d="M33.7694 10.897C32.8122 11.1845 31.8852 11.5537 31 12C32.6082 10.9784 34.3845 10.2115 36.2581 9.7299C37.0205 9.53656 37.7961 9.39181 38.5794 9.29664C40.7857 9.12334 43.1603 9.01483 45.679 9H45.7507C46.0295 9.07857 46.2891 9.20804 46.5144 9.38095C46.7077 9.52977 46.872 9.70884 47 9.91023C41.2072 9.96799 37.2734 10.185 36.523 10.3099C35.7975 10.4301 35.107 10.5777 34.6023 10.6956C34.0976 10.8134 33.7694 10.897 33.7694 10.897Z" fill="white"/>
<path d="M61.9999 16.0617C62.01 15.2134 60.983 14.6425 60.5303 14.3889C59.474 13.7951 58.3951 13.7951 57.7429 13.8647C57.3283 12.8094 56.7227 11.8417 55.9572 11.0112C55.4281 10.4382 54.8269 9.93793 54.1691 9.52337C53.931 9.43854 53.7055 9.36899 53.4674 9.29095C51.8293 9.15184 50.0981 9.05005 48.2814 9C48.0611 9.09921 47.8618 9.24064 47.6946 9.41649C47.5486 9.574 47.4258 9.75199 47.3299 9.94495C49.1105 9.93223 51.0513 9.93731 53.1144 9.96361C53.8168 11.7579 54.1659 13.6738 54.1422 15.6036H26.167C24.3505 15.9903 22.5678 16.5245 20.8361 17.2009C19.4201 17.7539 17.8835 18.3664 16.0769 19.5836C15.3321 20.0852 14.6205 20.6355 13.9466 21.2309C13.9606 21.6414 14.0197 22.0491 14.1227 22.4464C14.2275 22.8512 14.3789 23.242 14.5737 23.6111C14.3059 23.915 14.0707 24.2468 13.872 24.601C13.6601 24.9761 13.4914 25.3746 13.369 25.7885C13.1698 25.5624 13.0089 25.3044 12.8929 25.0251C12.7859 24.7674 12.7178 24.4949 12.6908 24.2167C12.5232 24.7639 12.3555 25.3135 12.1878 25.8632C11.6917 26.2914 11.3262 26.8536 11.134 27.4842C11.0129 27.9063 10.9733 28.3481 11.0175 28.7854C11.1701 28.9477 11.3227 29.1108 11.4752 29.2748C11.4987 29.6676 11.5222 30.0637 11.5431 30.4564C11.6437 31.3361 11.7443 32.2132 11.8433 33.0928C11.7217 33.1819 11.6001 33.2735 11.4752 33.3625C11.5658 33.779 11.6538 34.1955 11.7443 34.612C11.8079 34.8854 11.9339 35.1399 12.1124 35.3551C12.2596 35.5361 12.4408 35.6857 12.6456 35.7953C12.8724 35.3215 13.1409 34.8692 13.4478 34.4441C13.9166 33.7891 14.4707 33.2013 15.0952 32.6967C15.2199 32.5954 15.3633 32.5204 15.5171 32.476C15.6708 32.4315 15.8318 32.4186 15.9905 32.438C22.5776 33.241 29.1641 34.044 35.75 34.847C36.8472 35.1634 37.8924 35.6416 38.8519 36.2661C41.6309 38.0729 42.9228 40.6227 43.4426 41.8569C45.0901 42.0477 46.7538 42.0477 48.4013 41.8569C51.325 41.5115 54.1516 40.5814 56.7167 39.1205V30.0442C56.6365 28.5045 56.76 26.9609 57.0839 25.4543C57.4075 23.969 57.7747 23.2625 57.8862 23.0555C58.2014 22.4693 58.8034 21.6135 60.0575 20.5888L61.1909 19.6744C60.9839 19.2189 60.7433 18.7294 60.4582 18.2213C60.1791 17.7268 59.8965 17.2764 59.6199 16.8701H61.6621C61.8628 16.6476 61.982 16.3623 61.9999 16.0617ZM38.0571 32.0087C35.3267 32.7085 27.7196 31.9841 27.2845 31.9426H27.272C24.4669 31.6559 22.2034 31.3234 20.3591 31.0137C17.1332 30.4726 16.356 30.1969 15.5504 29.6201C14.5343 28.8923 14.2359 28.2298 14.1151 27.8549C13.696 26.5494 14.3616 25.3381 14.4505 25.1854C14.7562 24.6531 15.1936 24.2105 15.7197 23.9012C15.5167 23.2925 15.4705 22.6414 15.5856 22.0096C15.8513 20.5879 16.864 19.8041 17.1223 19.6107C16.9127 19.8152 15.7633 20.9764 15.9201 22.5499C15.9572 22.9145 16.0588 23.2694 16.2202 23.5975C21.9483 23.8328 27.7582 24.1585 33.65 24.5747C34.8673 24.6612 36.0803 24.7514 37.2892 24.8453L45.2366 20.8585C42.7999 22.2898 40.3623 23.7202 37.9238 25.1498C38.4193 25.375 38.8804 25.6709 39.2928 26.0286C40.1312 26.7547 40.5176 27.5224 40.8286 28.1568C41.2084 28.9296 41.4222 29.3817 41.2629 29.8805C41.1489 30.2368 40.8924 30.4624 40.5285 30.7287C39.9937 31.1096 39.1243 31.7348 38.0571 32.0087ZM49.1357 40.4132C48.0678 40.5887 46.9864 40.6651 45.9048 40.6414C44.8753 37.8553 43.0335 35.4514 40.6233 33.7485C42.4139 33.5492 43.9229 33.4652 45.0396 33.4279C50.1912 33.2582 51.2734 33.9266 51.8184 34.3737C52.8772 35.2423 53.454 36.5486 53.5219 36.7055C53.815 37.3826 53.9927 38.1051 54.0475 38.8422C52.4938 39.6031 50.8394 40.1319 49.1357 40.4123V40.4132ZM55.5221 23.9165C55.5094 23.9644 55.4873 24.0092 55.4572 24.0484C55.4271 24.0876 55.3896 24.1203 55.3469 24.1446C50.7478 27.2051 48.284 27.9456 48.284 27.9456C47.086 28.3061 45.5174 28.7243 43.6505 29.0865L41.1464 25.4391L40.3701 25.2363L41.4465 25.1091L53.6183 22.2709L54.9998 20.8967L54.1447 22.2683C54.7869 22.9164 55.2539 23.4211 55.4215 23.6374C55.4563 23.6743 55.4831 23.718 55.5004 23.7659C55.5177 23.8138 55.5251 23.8647 55.5221 23.9156V23.9165Z" fill="white"/>
<path d="M42 41.9994C35.7501 42.0259 29.5248 41.1765 23.4891 39.4735C20.2506 38.5569 17.0793 37.396 14 36C17.1876 37.0428 20.5959 38.0256 24.2248 38.9116C30.0815 40.3353 36.0186 41.3666 42 41.9994Z" fill="white"/>
<path d="M39 37.9493C33.769 38.1742 28.5337 37.6508 23.42 36.3917C20.9045 35.7704 18.4262 34.9716 16 34C18.8751 34.81 21.9605 35.5566 25.2495 36.1878C29.8003 37.062 34.3909 37.6501 39 37.9493Z" fill="white"/>
<path d="M57 37L57.1634 26.7665C57.3232 25.4243 57.8025 23.5325 59.2632 21.7853C59.4919 21.5111 59.7379 21.2489 60 21C59.2162 22.1033 58.6616 23.3254 58.3631 24.6069C58.2087 25.2773 58.1265 25.9595 58.1175 26.6441C58.0268 29.2366 57.9355 31.8296 57.8436 34.4231C57.5624 35.2807 57.2812 36.1397 57 37Z" fill="white"/>
<path d="M32 8.81061C30.6155 8.99052 29.8471 9.50368 29.3971 9.98772C28.3734 11.0894 28.0766 13.017 28.0212 12.9999C28.0134 12.9999 28.0212 12.963 28.0212 12.963C28.0601 12.6932 27.8646 11.0886 26.6081 9.98772C25.5836 9.0899 24.3894 8.99566 24 8.9811C25.0677 8.82585 26.0515 8.31951 26.7933 7.54355C27.4541 6.83889 27.8824 5.95166 28.0212 5C28.1185 5.96804 28.5458 6.87446 29.2327 7.57011C29.9743 8.2998 30.9568 8.74024 32 8.81061Z" fill="white"/>
<path d="M25 11.9529C24.7825 11.9731 24.5271 12.0379 24.3441 12.2275C24.0549 12.5286 24.0042 13.0779 24.0056 12.9907C24.0058 12.8429 23.9738 12.6968 23.9119 12.5624C23.85 12.4279 23.7595 12.3082 23.6467 12.2115C23.4634 12.0665 23.2345 11.99 23 11.9954C23.2538 11.9597 23.4891 11.8434 23.6705 11.6639C23.8518 11.4844 23.9695 11.2514 24.0056 11C24.0298 11.2501 24.1432 11.4834 24.3254 11.658C24.5077 11.8327 24.7469 11.9372 25 11.9529Z" fill="white"/>
<path d="M48 8.52587C47.7904 8.54253 47.5849 8.59635 47.3922 8.68506C47.2509 8.75118 47.1231 8.84581 47.0161 8.96365C46.9224 9.06921 46.8436 9.18851 46.7821 9.31786C46.7625 9.35765 46.746 9.39745 46.7317 9.4277C46.7317 9.4277 46.7061 9.4866 46.6813 9.55267C46.6293 9.69912 46.5848 9.84845 46.5481 10C46.5203 9.89891 46.491 9.81215 46.4646 9.74131C46.4519 9.7039 46.4248 9.63624 46.3894 9.55107C46.3592 9.47158 46.3232 9.39468 46.2818 9.32104C46.1991 9.1756 46.0932 9.04635 45.9689 8.93898C45.8238 8.81326 45.6566 8.71913 45.4769 8.66198C45.3225 8.61169 45.1615 8.58804 45 8.59193C45.3798 8.53465 45.7318 8.3485 46.0031 8.06143C46.2744 7.77437 46.4504 7.40191 46.5045 7C46.5397 7.38747 46.6989 7.7506 46.9559 8.02919C47.2358 8.32274 47.6067 8.49917 48 8.52587Z" fill="white"/>
<path d="M37 16.026L30.9496 23L25 22.7481L35.0664 16L37 16.026Z" fill="#252525"/>
<path d="M34 16L23.6234 23L21 22.9279L33.3502 16.0123L34 16Z" fill="#252525"/>
<path d="M53 39C52.8107 38.1954 52.3661 36.804 51.2673 35.6237C51.048 35.3915 50.8149 35.1767 50.5698 34.9808C48.5399 33.3955 44.4978 34.1836 44 34.2855C46.4407 34.2084 48.1532 34.787 49.0699 35.182C49.956 35.564 50.4546 35.9094 50.722 36.1151C51.672 36.8562 52.453 37.8452 53 39Z" fill="white"/>
<path d="M35.1443 10.3836C36.3582 10.1509 37.6645 10.0578 39 10L33.0638 13.9865L27 14C28.8304 12.7637 31.2135 11.1409 35.1443 10.3836Z" fill="white"/>
<path d="M54 14.975L44 15C44.611 13.3475 45.2221 11.6957 45.8331 10.0444C48.0397 10.0059 50.5174 9.98806 53.1969 10.0086C53.3632 10.6346 53.5183 11.3186 53.65 12.0501C53.8225 13.017 53.9394 13.9937 54 14.975Z" fill="white"/>
<path d="M46 10C45.4019 11.6565 44.8032 13.3136 44.204 14.9713L33 15L38.8439 10.2341C39.2954 10.2099 39.7504 10.1911 40.2062 10.1722C41.7977 10.105 43.7558 10.0413 46 10Z" fill="#252525"/>
</svg>
